<svg xmlns="http://www.w3.org/2000/svg" viewBox="0 0 1440 320">
    <path fill="#04A6DB" fill-opacity="1"
        d="M0,224L24,218.7C48,213,96,203,144,186.7C192,171,240,149,288,117.3C336,85,384,43,432,48C480,53,528,107,576,138.7C624,171,672,181,720,176C768,171,816,149,864,128C912,107,960,85,1008,106.7C1056,128,1104,192,1152,213.3C1200,235,1248,213,1296,208C1344,203,1392,213,1416,218.7L1440,224L1440,0L1416,0C1392,0,1344,0,1296,0C1248,0,1200,0,1152,0C1104,0,1056,0,1008,0C960,0,912,0,864,0C816,0,768,0,720,0C672,0,624,0,576,0C528,0,480,0,432,0C384,0,336,0,288,0C240,0,192,0,144,0C96,0,48,0,24,0L0,0Z">
    </path>
</svg>